<svg width="35" height="36" viewBox="0 0 35 36" fill="none" xmlns="http://www.w3.org/2000/svg">
<rect y="0.5" width="35" height="35" rx="17.5" fill="#2578FF"/>
<path d="M13.752 25.188L13.928 24.98L13.976 24.964L14.072 25.012L14.12 25.044C14.328 24.884 14.488 24.708 14.648 24.532C14.808 24.356 15.064 23.892 15.496 23.172L16.488 21.492C16.968 20.676 19.512 17.044 20.12 16.276L21.064 15.284C21.736 14.58 22.104 14.068 22.296 13.844C22.488 13.62 22.568 13.444 22.568 13.316C22.568 13.236 22.52 13.108 22.44 13.108C22.344 13.108 22.232 13.172 22.072 13.284L22.2 12.996C21.992 13.108 21.672 13.492 21.416 13.604C21.32 13.604 21.288 13.524 21.352 13.252C21.048 13.428 20.296 14.036 19.848 14.548C19.464 14.996 17.624 17.22 16.856 18.628C16.456 19.364 16.104 19.94 16.056 20.084C15.992 20.244 15.928 20.308 15.88 20.308C15.848 20.308 15.816 20.244 15.816 20.116C15.528 20.772 15.256 20.836 15 21.716C14.424 22.756 14.2 22.964 14.024 22.964C13.816 22.964 13.496 22.212 13.336 20.964C13.288 20.58 13.144 20.484 12.968 20.34C12.696 20.34 12.296 20.724 12.104 20.724C12.056 20.724 11.96 20.692 11.816 20.612C11.944 21.46 12.04 22.02 12.136 22.292C12.328 22.82 12.776 24.196 13.272 24.996L13.336 25.124C13.464 25.044 13.544 25.012 13.624 25.012C13.704 25.012 13.752 25.076 13.752 25.188Z" fill="white"/>
</svg>
