<svg width="28" height="28" viewBox="0 0 28 28" fill="none" xmlns="http://www.w3.org/2000/svg">
<path d="M8.89342 1.68001C10.5135 1.01327 12.2482 0.66906 14.0001 0.666672C15.7468 0.666672 17.4801 1.01334 19.1068 1.68001C20.7201 2.34667 22.1868 3.33334 23.4268 4.57334C24.6668 5.81334 25.6534 7.28001 26.3201 8.89334C26.9868 10.52 27.3334 12.2533 27.3334 14C27.3334 17.5333 25.9334 20.9333 23.4268 23.4267C22.1901 24.6664 20.7207 25.6497 19.103 26.3201C17.4853 26.9905 15.7512 27.3349 14.0001 27.3333C12.2482 27.3309 10.5135 26.9867 8.89342 26.32C7.27709 25.6492 5.80904 24.6659 4.57342 23.4267C3.33368 22.19 2.35039 20.7206 1.67998 19.1029C1.00957 17.4853 0.665236 15.7511 0.666753 14C0.666753 10.4667 2.06675 7.06667 4.57342 4.57334C5.81342 3.33334 7.28009 2.34667 8.89342 1.68001ZM14.0001 20.6667L16.0801 16.1067L20.6668 14L16.0801 11.92L14.0001 7.33334L11.9068 11.92L7.33342 14L11.9068 16.1067L14.0001 20.6667Z" fill="#252627"/>
</svg>
