<svg width="35" height="35" viewBox="0 0 35 35" fill="none" xmlns="http://www.w3.org/2000/svg">
<rect width="35" height="35" rx="17.5" fill="#6438BC"/>
<path d="M13.752 24.688L13.928 24.48L13.976 24.464L14.072 24.512L14.12 24.544C14.328 24.384 14.488 24.208 14.648 24.032C14.808 23.856 15.064 23.392 15.496 22.672L16.488 20.992C16.968 20.176 19.512 16.544 20.12 15.776L21.064 14.784C21.736 14.08 22.104 13.568 22.296 13.344C22.488 13.12 22.568 12.944 22.568 12.816C22.568 12.736 22.52 12.608 22.44 12.608C22.344 12.608 22.232 12.672 22.072 12.784L22.2 12.496C21.992 12.608 21.672 12.992 21.416 13.104C21.32 13.104 21.288 13.024 21.352 12.752C21.048 12.928 20.296 13.536 19.848 14.048C19.464 14.496 17.624 16.72 16.856 18.128C16.456 18.864 16.104 19.44 16.056 19.584C15.992 19.744 15.928 19.808 15.88 19.808C15.848 19.808 15.816 19.744 15.816 19.616C15.528 20.272 15.256 20.336 15 21.216C14.424 22.256 14.2 22.464 14.024 22.464C13.816 22.464 13.496 21.712 13.336 20.464C13.288 20.08 13.144 19.984 12.968 19.84C12.696 19.84 12.296 20.224 12.104 20.224C12.056 20.224 11.96 20.192 11.816 20.112C11.944 20.96 12.04 21.52 12.136 21.792C12.328 22.32 12.776 23.696 13.272 24.496L13.336 24.624C13.464 24.544 13.544 24.512 13.624 24.512C13.704 24.512 13.752 24.576 13.752 24.688Z" fill="white"/>
</svg>
