<svg width="233" height="33" viewBox="0 0 233 33" fill="none" xmlns="http://www.w3.org/2000/svg">
<path d="M30.2907 25.9012L36.9307 30.0427C38.1467 30.8017 39.6347 29.6797 39.3147 28.2607L37.5547 20.4727L43.4267 15.2257C44.4987 14.2687 43.9227 12.4537 42.5147 12.3382L34.7867 11.6617L31.7627 4.30267C31.2187 2.96617 29.3627 2.96617 28.8187 4.30267L25.7947 11.6452L18.0667 12.3217C16.6587 12.4372 16.0827 14.2522 17.1547 15.2092L23.0267 20.4562L21.2667 28.2442C20.9467 29.6632 22.4347 30.7852 23.6507 30.0262L30.2907 25.9012Z" fill="#EEB609"/>
<path d="M72.7684 25.9012L79.6159 30.0427C80.8699 30.8017 82.4044 29.6797 82.0744 28.2607L80.2594 20.4727L86.3149 15.2257C87.4204 14.2687 86.8264 12.4537 85.3744 12.3382L77.4049 11.6617L74.2864 4.30267C73.7254 2.96617 71.8114 2.96617 71.2504 4.30267L68.1319 11.6452L60.1624 12.3217C58.7104 12.4372 58.1164 14.2522 59.2219 15.2092L65.2774 20.4562L63.4624 28.2442C63.1324 29.6632 64.6669 30.7852 65.9209 30.0262L72.7684 25.9012Z" fill="#EEB609"/>
<path d="M115.291 25.9012L121.931 30.0427C123.147 30.8017 124.635 29.6797 124.315 28.2607L122.555 20.4727L128.427 15.2257C129.499 14.2687 128.923 12.4537 127.515 12.3382L119.787 11.6617L116.763 4.30267C116.219 2.96617 114.363 2.96617 113.819 4.30267L110.795 11.6452L103.067 12.3217C101.659 12.4372 101.083 14.2522 102.155 15.2092L108.027 20.4562L106.267 28.2442C105.947 29.6632 107.435 30.7852 108.651 30.0262L115.291 25.9012Z" fill="#EEB609"/>
<path d="M157.768 25.9012L164.616 30.0427C165.87 30.8017 167.404 29.6797 167.074 28.2607L165.259 20.4727L171.315 15.2257C172.42 14.2687 171.826 12.4537 170.374 12.3382L162.405 11.6617L159.286 4.30267C158.725 2.96617 156.811 2.96617 156.25 4.30267L153.132 11.6452L145.162 12.3217C143.71 12.4372 143.116 14.2522 144.222 15.2092L150.277 20.4562L148.462 28.2442C148.132 29.6632 149.667 30.7852 150.921 30.0262L157.768 25.9012Z" fill="#EEB609"/>
<path d="M200.768 25.9012L207.616 30.0427C208.87 30.8017 210.404 29.6797 210.074 28.2607L208.259 20.4727L214.315 15.2257C215.42 14.2687 214.826 12.4537 213.374 12.3382L205.405 11.6617L202.286 4.30267C201.725 2.96617 199.811 2.96617 199.25 4.30267L196.132 11.6452L188.162 12.3217C186.71 12.4372 186.116 14.2522 187.222 15.2092L193.277 20.4562L191.462 28.2442C191.132 29.6632 192.667 30.7852 193.921 30.0262L200.768 25.9012Z" fill="#EEB609"/>
</svg>
