<svg width="45" height="44" viewBox="0 0 45 44" fill="none" xmlns="http://www.w3.org/2000/svg">
<rect y="0.0224609" width="44.6301" height="43.9541" rx="6" fill="#FFF300"/>
<path d="M14 29.2378C14 27.2637 14.5085 26.7553 16.3031 27.2637C17.8883 27.7124 19.7727 27.9218 22.016 27.9218C24.4985 27.9218 25.2463 27.6825 25.2463 26.6954C25.2463 25.9776 24.8275 25.6486 22.6142 24.7812L18.7258 23.1361C15.7348 21.9098 14.3589 20.4143 14.3589 17.184C14.3589 12.9965 16.8415 11.0225 22.9133 11.0225C24.5583 11.0225 26.0239 11.2019 27.3699 11.5309C29.2243 11.9796 29.673 12.4582 29.673 14.2827V14.7014C29.673 16.5858 29.1645 17.0344 27.34 16.5858C25.9641 16.2568 24.4387 16.0773 22.8534 16.0773C20.4606 16.0773 19.7428 16.4063 19.7428 17.2139C19.7428 17.842 20.1316 18.0813 21.4477 18.6496L25.8146 20.3545C29.1346 21.6406 30.6301 23.2857 30.6301 26.6356C30.6301 31.0025 27.998 32.9766 21.6271 32.9766C19.5633 32.9766 17.7986 32.7971 16.333 32.4382C14.4487 32.0195 14 31.5409 14 29.7164V29.2378Z" fill="#F6038D"/>
</svg>
